<svg width="16" height="16" viewBox="0 0 16 16" fill="none" xmlns="http://www.w3.org/2000/svg">
<path d="M7.0685 0.7275C7.3115 -0.2425 8.6885 -0.2425 8.9325 0.7275L9.0035 1.0135C9.04504 1.17971 9.13031 1.33177 9.25044 1.45391C9.37058 1.57605 9.52121 1.66381 9.68671 1.70809C9.85221 1.75237 10.0265 1.75156 10.1916 1.70574C10.3567 1.65992 10.5065 1.57075 10.6255 1.4475L10.8305 1.2365C11.5255 0.5175 12.7185 1.2065 12.4435 2.1675L12.3635 2.4515C12.3164 2.61615 12.3142 2.7904 12.3571 2.95618C12.4001 3.12197 12.4866 3.27325 12.6077 3.39434C12.7288 3.51544 12.88 3.60193 13.0458 3.64486C13.2116 3.68779 13.3859 3.6856 13.5505 3.6385L13.8335 3.5575C14.7935 3.2825 15.4835 4.4755 14.7645 5.1705L14.5535 5.3755C14.4302 5.49449 14.3411 5.6443 14.2953 5.80938C14.2494 5.97446 14.2486 6.14879 14.2929 6.31429C14.3372 6.47979 14.425 6.63042 14.5471 6.75056C14.6692 6.87069 14.8213 6.95596 14.9875 6.9975L15.2735 7.0685C16.2435 7.3115 16.2435 8.6885 15.2735 8.9325L14.9875 9.0035C14.8213 9.04504 14.6692 9.13031 14.5471 9.25044C14.425 9.37058 14.3372 9.52121 14.2929 9.68671C14.2486 9.85221 14.2494 10.0265 14.2953 10.1916C14.3411 10.3567 14.4302 10.5065 14.5535 10.6255L14.7645 10.8305C15.4835 11.5255 14.7945 12.7185 13.8335 12.4435L13.5495 12.3635C13.3849 12.3164 13.2106 12.3142 13.0448 12.3571C12.879 12.4001 12.7278 12.4866 12.6067 12.6077C12.4856 12.7288 12.3991 12.88 12.3561 13.0458C12.3132 13.2116 12.3154 13.3859 12.3625 13.5505L12.4435 13.8335C12.7185 14.7935 11.5255 15.4835 10.8305 14.7645L10.6255 14.5535C10.5065 14.4302 10.3567 14.3411 10.1916 14.2953C10.0265 14.2494 9.85221 14.2486 9.68671 14.2929C9.52121 14.3372 9.37058 14.425 9.25044 14.5471C9.13031 14.6692 9.04504 14.8213 9.0035 14.9875L8.9325 15.2735C8.6895 16.2435 7.3125 16.2435 7.0685 15.2735L6.9975 14.9875C6.95596 14.8213 6.87069 14.6692 6.75056 14.5471C6.63042 14.425 6.47979 14.3372 6.31429 14.2929C6.14879 14.2486 5.97446 14.2494 5.80938 14.2953C5.6443 14.3411 5.49449 14.4302 5.3755 14.5535L5.1705 14.7645C4.4755 15.4835 3.2825 14.7945 3.5575 13.8335L3.6375 13.5495C3.68451 13.385 3.68668 13.2108 3.64378 13.0452C3.60089 12.8795 3.51449 12.7283 3.39354 12.6073C3.27258 12.4862 3.12147 12.3997 2.95584 12.3566C2.79021 12.3136 2.61609 12.3156 2.4515 12.3625L2.1675 12.4435C1.2075 12.7185 0.5175 11.5255 1.2365 10.8305L1.4475 10.6255C1.57075 10.5065 1.65992 10.3567 1.70574 10.1916C1.75156 10.0265 1.75237 9.85221 1.70809 9.68671C1.66381 9.52121 1.57605 9.37058 1.45391 9.25044C1.33177 9.13031 1.17971 9.04504 1.0135 9.0035L0.7275 8.9325C-0.2425 8.6895 -0.2425 7.3125 0.7275 7.0685L1.0135 6.9975C1.17971 6.95596 1.33177 6.87069 1.45391 6.75056C1.57605 6.63042 1.66381 6.47979 1.70809 6.31429C1.75237 6.14879 1.75156 5.97446 1.70574 5.80938C1.65992 5.6443 1.57075 5.49449 1.4475 5.3755L1.2365 5.1705C0.5175 4.4755 1.2065 3.2825 2.1675 3.5575L2.4515 3.6375C2.61605 3.68451 2.79017 3.68668 2.95583 3.64378C3.1215 3.60089 3.27269 3.51449 3.39374 3.39354C3.5148 3.27258 3.60133 3.12147 3.64436 2.95584C3.68739 2.79021 3.68537 2.61609 3.6385 2.4515L3.5575 2.1675C3.2825 1.2075 4.4755 0.5175 5.1705 1.2365L5.3755 1.4475C5.49449 1.57075 5.6443 1.65992 5.80938 1.70574C5.97446 1.75156 6.14879 1.75237 6.31429 1.70809C6.47979 1.66381 6.63042 1.57605 6.75056 1.45391C6.87069 1.33177 6.95596 1.17971 6.9975 1.0135L7.0685 0.7275ZM12.9735 8.5005H8.2505L5.4165 12.2795C6.13838 12.7155 6.95884 12.9618 7.8015 12.9953C8.64417 13.0289 9.48162 12.8487 10.2359 12.4715C10.9902 12.0943 11.6368 11.5324 12.1154 10.8381C12.5941 10.1438 12.8893 9.33961 12.9735 8.5005ZM12.9735 7.5005C12.8893 6.66139 12.5941 5.85723 12.1154 5.1629C11.6368 4.46858 10.9902 3.90666 10.2359 3.52947C9.48162 3.15228 8.64417 2.97209 7.8015 3.00566C6.95884 3.03924 6.13838 3.28549 5.4165 3.7215L8.2505 7.5015L12.9735 7.5005ZM4.6175 4.3225C4.10767 4.78982 3.70077 5.3582 3.42271 5.99144C3.14466 6.62468 3.00155 7.3089 3.0025 8.0005C3.0025 9.4555 3.6245 10.7655 4.6175 11.6785L7.3755 8.0005L4.6175 4.3225Z" fill="#3B82F6"/>
</svg>
